<!-- Generator: Adobe Illustrator 19.2.1, SVG Export Plug-In  -->
<svg version="1.1"
	 xmlns="http://www.w3.org/2000/svg" xmlns:xlink="http://www.w3.org/1999/xlink" xmlns:a="http://ns.adobe.com/AdobeSVGViewerExtensions/3.0/"
	 x="0px" y="0px" width="603.2px" height="794.8px" viewBox="0 0 603.2 794.8" style="enable-background:new 0 0 603.2 794.8;"
	 xml:space="preserve">
<style type="text/css">
	.st0{fill:none;stroke:#0971B8;stroke-width:3.5649;stroke-miterlimit:10;}
	.st1{stroke:#000000;stroke-width:0;stroke-miterlimit:10;}
</style>
<defs>
</defs>
<g>
	<g>
		<ellipse transform="matrix(0.7503 -0.661 0.661 0.7503 20.2275 324.55)" class="st0" cx="439.8" cy="135.5" rx="22.7" ry="22.7"/>
		
			<ellipse transform="matrix(0.7503 -0.661 0.661 0.7503 9.4744 254.2036)" class="st0" cx="341.3" cy="114.6" rx="22.7" ry="22.7"/>
		
			<ellipse transform="matrix(0.7503 -0.661 0.661 0.7503 -101.8944 437.9446)" class="st0" cx="528.9" cy="353.9" rx="22.7" ry="22.7"/>
		
			<ellipse transform="matrix(0.7503 -0.661 0.661 0.7503 -219.7975 464.3697)" class="st0" cx="504.9" cy="523.2" rx="22.7" ry="22.7"/>
		
			<ellipse transform="matrix(0.7503 -0.661 0.661 0.7503 -231.147 524.3738)" class="st0" cx="578.7" cy="568.2" rx="22.7" ry="22.7"/>
		
			<ellipse transform="matrix(0.7503 -0.661 0.661 0.7503 -269.1522 483.8056)" class="st0" cx="505.9" cy="598.2" rx="22.7" ry="22.7"/>
		<g>
			<g>
				<path d="M439.2,64.3c0,16.1,0,32.3,0,48.4c0,1.9,3,1.9,3,0c0-16.1,0-32.3,0-48.4C442.2,62.4,439.2,62.4,439.2,64.3L439.2,64.3z"
					/>
			</g>
		</g>
		<g>
			<g>
				<path d="M192.2,65.8c28.1,0,56.2,0,84.3,0c44.4,0,88.7,0,133.1,0c10.2,0,20.5,0,30.7,0c1.9,0,1.9-3,0-3c-28.1,0-56.2,0-84.3,0
					c-44.4,0-88.7,0-133.1,0c-10.2,0-20.5,0-30.7,0C190.3,62.8,190.3,65.8,192.2,65.8L192.2,65.8z"/>
			</g>
		</g>
		<g>
			<g>
				<path d="M342.8,184.4c0-15.7,0-31.4,0-47c0-1.9-3-1.9-3,0c0,15.7,0,31.4,0,47C339.8,186.3,342.8,186.3,342.8,184.4L342.8,184.4z
					"/>
			</g>
		</g>
		<g>
			<g>
				<path d="M242.7,185.9c28.7,0,57.4,0,86.1,0c4.2,0,8.3,0,12.5,0c1.9,0,1.9-3,0-3c-28.7,0-57.4,0-86.1,0c-4.2,0-8.3,0-12.5,0
					C240.8,182.9,240.8,185.9,242.7,185.9L242.7,185.9z"/>
			</g>
		</g>
		<g>
			<g>
				<path d="M416.9,355.8c29.7,0.2,59.5,0.1,89.2,0c1.9,0,1.9-3,0-3c-29.7,0.2-59.5,0.2-89.2,0C415,352.8,415,355.8,416.9,355.8
					L416.9,355.8z"/>
			</g>
		</g>
		<g>
			<g>
				<path d="M415.4,324.3c0,10,0,20,0,30c0,1.9,3,1.9,3,0c0-10,0-20,0-30C418.4,322.3,415.4,322.3,415.4,324.3L415.4,324.3z"/>
			</g>
		</g>
		<g>
			<g>
				<path d="M575.9,439.9c0.4,30.8,0.7,61.6,1.1,92.4c0.1,4.4,0.1,8.7,0.2,13.1c0,1.9,3,1.9,3,0c-0.4-30.8-0.7-61.6-1.1-92.4
					c-0.1-4.4-0.1-8.7-0.2-13.1C578.9,438,575.9,438,575.9,439.9L575.9,439.9z"/>
			</g>
		</g>
		<g>
			<g>
				<path d="M271.9,439.7c34.4,0.2,68.8,0.4,103.1,0.6c54.8,0.3,109.7,0.6,164.5,0.9c12.6,0.1,25.2,0.1,37.9,0.2c1.9,0,1.9-3,0-3
					c-34.4-0.2-68.8-0.4-103.1-0.6c-54.8-0.3-109.7-0.6-164.5-0.9c-12.6-0.1-25.2-0.1-37.9-0.2C270,436.7,270,439.7,271.9,439.7
					L271.9,439.7z"/>
			</g>
		</g>
		<g>
			<g>
				<path d="M268.6,522.7c23.9,0,47.8,0,71.8,0c38.1,0,76.2,0,114.3,0c8.7,0,17.5,0,26.2,0c1.9,0,1.9-3,0-3c-23.9,0-47.8,0-71.8,0
					c-38.1,0-76.2,0-114.3,0c-8.7,0-17.5,0-26.2,0C266.7,519.7,266.7,522.7,268.6,522.7L268.6,522.7z"/>
			</g>
		</g>
		<g>
			<g>
				<path d="M507.7,639.5c0-5.9,0-11.8,0-17.6c0-2.3-3.6-2.3-3.6,0c0,5.9,0,11.8,0,17.6C504.2,641.8,507.7,641.8,507.7,639.5
					L507.7,639.5z"/>
			</g>
		</g>
		<g>
			<g>
				<path d="M315.5,641c21.4,0,42.9,0,64.3,0c34.2,0,68.4,0,102.5,0c7.9,0,15.8,0,23.7,0c1.9,0,1.9-3,0-3c-21.4,0-42.9,0-64.3,0
					c-34.2,0-68.4,0-102.5,0c-7.9,0-15.8,0-23.7,0C313.5,638,313.5,641,315.5,641L315.5,641z"/>
			</g>
		</g>
		<g>
			<g>
				<path d="M314,588.1c0,17,0,34,0,51c0,1.9,3,1.9,3,0c0-17,0-34,0-51C317,586.1,314,586.1,314,588.1L314,588.1z"/>
			</g>
		</g>
		<g>
			<g>
				<path d="M264,589.5c17.2,0,34.3,0,51.5,0c1.9,0,1.9-3,0-3c-17.2,0-34.3,0-51.5,0C262.1,586.5,262.1,589.5,264,589.5L264,589.5z"
					/>
			</g>
		</g>
		<g>
			<g>
				<path d="M276.9,325.8c40.9,0,81.8,0,122.8,0c5.7,0,11.5,0,17.2,0c1.9,0,1.9-3,0-3c-40.9,0-81.8,0-122.8,0c-5.7,0-11.5,0-17.2,0
					C275,322.8,275,325.8,276.9,325.8L276.9,325.8z"/>
			</g>
		</g>
	</g>
	<path d="M74.5,525.8c-15.2-14.9-31.8-30-47-44.9c-5.5-5.4-11.4-11.2-16.9-16.6c-1.5-1.4-2.3-1.8-4.1-0.9c-3.3,1.7-0.6,4.1,2.4,7
		c14.9,14.6,29.4,28.8,44.3,43.4c6.1,6,11.2,11.2,17.3,17.2c1.5,1.5,3.9,1.3,3.9,1.3s2.3,0.4,2.5-2.4
		C77,527.7,75.9,527.1,74.5,525.8z"/>
	<path d="M96.5,466.4c0.8,3.3,0.1,2.8-3.5,3.4c0,0-3.4-2.6-5.2-4.4c-7.2-7.5-0.7-0.8-7.8-8.3c-17.4-18.3-26.2-27.7-43.5-46
		c-3.5-3.7-7.2-5.5-2.7-6.9c2.3-0.8,4.2,0.4,5.9,2.2c6.4,6.8,14.7,15.3,21.2,22.1c17.7,18.7,12.5,13.1,30.3,31.7
		C92.7,461.9,95.5,464.1,96.5,466.4z"/>
	<path d="M101.8,449.3c0.5,2.7-0.9,3.4-3.9,3.7c0,0-2.7-2.3-4-4c-5.4-6.6-0.5-0.7-5.9-7.3c-13.1-16.1-19.8-24.4-32.9-40.5
		c-2.6-3.2-5.4-4.9-1.7-5.8c2-0.5,5.1,1.3,6.4,2.9c4.9,6,10.2,12.6,15.1,18.5c13.4,16.5,8.9,10.2,22.3,26.7
		C98.4,444.9,101.1,447.2,101.8,449.3z"/>
	<path d="M115.5,511.7c-0.2,3.5-3.1,3-3.1,3s-3,0.2-4.9-1.7c-7.7-7.5-14.1-14.1-21.8-21.7c-18.8-18.3-37-36.2-55.7-54.6
		c-3.7-3.7-7.2-6.8-3-8.8c2.2-1.1,3.3-0.7,5.1,1.1c7,6.8,14.3,14.1,21.3,20.9c19.2,18.7,40,37.8,59.2,56.5
		C114.3,508,115.7,508.8,115.5,511.7z"/>
	<path d="M108.1,433.1c0.4,2.3-0.8,2.8-3.3,3.1c0,0-2.4-1.3-3.5-2.6c-4.5-5.6,0,0-4.5-5.6c-11-13.5-17.2-20.8-28.2-34.4
		c-2.2-2.7-3.9-5.9-0.8-6.7c1.7-0.4,2.4,0,3.4,1.3c4.1,5,8.4,10.4,12.5,15.4c11.3,13.8,9.3,10.8,20.5,24.6
		C105.3,429.5,107.6,431.4,108.1,433.1z"/>
	<path d="M20.5,492.1c-1.8,1.2-3.3,4.4-4.4,5.9c-8.3,11.4-9,12.6-12.2,17.1l0.1,9.5c3.8-5.1,7.7-10.5,12.7-17.2
		c5.1-6.9,0.5-0.7,5.6-7.6c1.2-1.7,2.8-4.8,2.8-4.8C24,492.2,23,491,20.5,492.1z"/>
	<path d="M101.3,525.2c-23.8-23.1-40.5-38.3-64.3-61.5c-8.7-8.4-17.5-17.4-26.2-25.9c-2.2-2.1-4.9-5.3-7.5-4.4l0.1,6.9
		c1.1,1.1,2.5,2.3,3.8,3.6c23.3,22.7,45.9,44.9,69.1,67.5c9.6,9.3,10.4,10.5,19.9,19.8c2.4,2.3,5.3,4.9,5.3,4.9s6.4,2.2,6.7-2.2
		C108.4,530.5,103.4,527.3,101.3,525.2z"/>
	<path d="M7.8,493c-0.9-2.4-1.7-3.4-3.8-2.4c-0.1,0.1-0.2,0.1-0.3,0.2l0.1,9.4c0.7-0.9-0.8,1,2.3-3.2C7.2,495.7,7.8,493,7.8,493z"/>
	<path class="st1" d="M270.8,444.2c0.1,0,0.1,0,0.2-0.1C270.9,444,268.4,443.4,270.8,444.2z"/>
	<path d="M274.4,475.6c-12.9-18.3-25.6-36.8-38.6-55.1c-17.5-24.8-35.4-49.3-52.8-74.2c-11.7-16.7-22.5-34.1-35.5-49.8
		c-16.6-20.1-35-38.2-57.1-52.3c-22.1-14-46.1-22.4-75.8-22.7c-3.8,0-8.2,0.4-13,1.1l0.1,13.4c1.3-0.2,2.7-0.4,4-0.6
		c12-1.5,24.3-0.9,36.1,1.6c20.7,4.5,40.6,16,57.2,28.8c22,16.9,38.4,37.3,54.3,59.9c8.9,12.6,18.6,26.3,27.5,38.9
		c19.8,27.9,38.1,53.4,57.9,81.3c8.5,12,18.9,26.5,27.3,38.6c2.4,3.4,4.4,3.1,7.8,1.6C277.7,484.4,278,480.8,274.4,475.6z"/>
	<path d="M100.5,775.2c9.3-5.1,15.8-9.7,24.9-15.2c12.8-7.6,21.4-14,32.9-24.5c22.9-21,43.2-44.3,53.2-72c0.8-2.3,3.7-8.2,5.3-10.1
		c2.1-2.5,4.7-4.5,6.6-3.7c2.3,1,1.6,5.2,0.5,8.5c-3.4,9.9-9.9,24.3-15.2,34c-10.4,18.8-23.4,32.6-39.3,47.7
		c-18.4,17.5-36.2,27.9-57.1,39.3c-3.4,1.8-5.7,2.9-9.2,4.7c-2.9,1.5-4.8,1-6.3-1c-1.5-1.9-1-2.5,0.7-5.3c0.1-0.1,1-1.3,1-1.5
		C99,775.5,100,775.9,100.5,775.2z"/>
	<path d="M279.7,383.9c-29.5-55.8-65.1-107.2-109.5-152.2c-18.2-18.4-37.2-35.8-59-49.9c-24-15.5-49.9-26.1-78.6-28.8
		c-10.5-1-21-0.9-31.4,0.1l0.1,12.1c11.1-1.2,22.3-1.3,33.3-0.1c16.5,1.8,32.6,7.3,47.6,14.4c22.6,10.7,44.8,26.6,63.1,43.5
		c17.1,15.8,35.1,35.1,50.1,53c20.4,24.4,37.9,50.9,54.2,78.2c7.5,12.6,13.3,24.5,20.5,37.3c2.3,4,4.6,4.4,8.6,3.5
		c3-0.7,1.4-2.4,2.7-4.9c0-1,0-2,0-3C280.7,386,280.2,384.9,279.7,383.9z"/>
	<path d="M2.9,433.6c-3.7,1.8-2.3,4,0.5,6.8l-0.1-6.9C3.1,433.5,3,433.5,2.9,433.6z"/>
	<path d="M191.2,59.3c-27.1-18.8-52.9-34.4-84.4-44.7C81.7,6.5,55.9,1.9,43.5,0.7c-2.2-0.2-8.7-0.3-10.9-0.5c-0.4,0-2.5-0.1-4.1-0.2
		c-1.1,0-2.2-0.1-3.4,0c-2.6,0.1-7.8,0.2-9.1,0.2c-5.3,0-10.6,0.2-16,0.6l0.1,8.8c2.2-0.1,4.4-0.3,6.6-0.4C27.5,8.3,48,10,68.3,14.1
		c21.9,4.4,42.9,11.6,63.2,21.2c17.7,8.3,34.4,18.3,50.5,29.2c1.8,1.2,4.2,2.9,6.4,3.2c2,0.3,3.4,0.9,4.3-1.9
		C193.5,62.2,194.5,61.6,191.2,59.3z"/>
	<path d="M122.8,559.7l-3.9,3.1c-1.4,1-7.4,6.1-8.5,7.4l-31.2,33.5c-9.9,10.9-20.6,21.1-33,29c-9,5.7-21.1,11.4-30.1,16.7
		c-3.7,2.2-7.4,4.3-11.1,6.3l0.1,13.5c21.2-10.7,41.4-23.1,60.6-37.3c12.5-9.3,23.5-19.9,32.9-32.1c2.8-3.6,8.7-8.3,11.7-11.6
		c5.2-5.8,12.8-12.2,17.3-19.2c0.2-0.3,3.6-3.4,3.6-3.4C132.2,560.1,127.3,556.7,122.8,559.7z"/>
	<path d="M17.4,27.1C17.5,27,17.5,27,17.4,27.1L17.4,27.1z"/>
	<path d="M247.4,177c-13.6-14.1-27.7-27.7-42.7-40.4c-22.3-18.9-46-35.8-72-49.5C100.6,70.2,66.6,59.2,30.3,56.4
		c-10-0.8-19.9-0.9-29.9-0.4l0.1,12.3c0.6,0,1.3-0.1,1.9-0.1c13.1-0.8,27.3,0.3,40.4,2c20.6,2.6,40.4,7.8,58.2,17.3
		c39.8,16,71.8,36.2,103.4,64.8c11,9.9,22,22.5,32.7,32.7c0,0,0.7,1,1.6,2.2c1.9,2.5,5.5,3.4,8,1.7c0,0,0,0,0,0
		C250.9,186.1,251,180.7,247.4,177z"/>
	<path d="M56.6,306.3c1.1,1.8-5.2-15.1-16.4-20.1c-12.6-7.1-37.5-1.9-37.5-1.9c-0.2,0-0.4,0.1-0.6,0.1l0.1,10.6c3-1,5.8-1.6,8.4-1.8
		c15.7-3.5,24.1,4.3,31.3,8.5c4.8,2.8,4.6,15.4,5.1,19.6c-2.6,22.6-10.2,33-10.2,33l-8.1,12.4c0,0,3.4,6.6,6,4.3
		c9.1-8.1,21-23.2,21.7-43.9C56.5,327.1,59.8,312.5,56.6,306.3z"/>
	<path d="M32,330.4c-0.1-0.6-0.2-1.3-0.3-1.8c-1.3-5.4-3.8-11.6-9-15.2c-6-4.1-17.2-2.2-20.2-1.5l0.1,9.6c0.7-0.3,1.4-0.5,1.9-0.6
		c6.1-1.4,15.5,3.4,17.9,8.2c1.3,2.6,1.3,3.4,1.7,6.3c0,0-2.5,11.4-5.1,21c-2.5,3.8,5.4,16.3,8.5-0.5c0,0,1.7-5.6,3.2-10.1
		C32,340.7,32.7,335.5,32,330.4z"/>
	<path d="M277.7,250.3c-5.6-6.8-11.2-13.8-16.9-20.5c-23.7-28.2-49.4-54.3-78.4-77.2c-19.8-15.6-40.7-29.4-63.4-40.4
		c-32.9-15.9-67.4-25-104.2-25.5c-4.7,0.4-9.5,0.6-14.2,0.9l0.1,12.2c17.6-0.6,37.8,1.5,53.9,4.1c14.7,2.4,25.3,6.1,39.3,11.4
		c31.1,11.9,57.3,27,83.1,47.8c29.1,23.5,60.9,53.3,81.3,83.1c4.1,4.9,7.4,8.5,11.5,13.4c1.9,2.3,3.2,1.7,6.2,1
		c3.1-0.8,1.5-0.6,2.2-3.6C279,253.9,279.5,252.5,277.7,250.3z"/>
	<path d="M281,318.8c-15.1-27-32.8-52.3-53-75.7c-16.4-19-34.2-36.7-53.4-52.9C158,176,141,162.3,122.5,150.6
		c-29.8-18.9-61.8-31.5-97.5-33.5c-8.1-0.5-16.1-0.3-24.1,0.4L1,130c5.8-0.6,11.8-1,17.8-1c7.2-0.1,20.2,1.7,30.9,3.9
		c25.9,5.4,50.4,16.4,72.3,31.1c17.5,11.7,32.6,24.2,48.4,38.1c24.4,21.3,47.3,46.3,66.7,72.2c12.1,16.1,23.1,33.6,33,51
		c2.4,4.2,6.7,4.4,10.4,2.2C284.3,325.3,283.3,322.8,281,318.8z"/>
	<path d="M276.4,437.4c0-1.8-0.7-3.8-1.6-5.4c-9.6-16.5-19.1-32.9-28.9-49.2c-18.4-30.6-37.7-60.7-59.1-89.4
		c-16.4-22-33.8-43-55.1-60.5c-25.6-21-54.2-35.5-87.4-40.2c-14.3-2-28.6-2-42.9-0.2l0.1,12.7c8.2-1.2,16.4-1.8,24.5-1.9
		c4.6,0.3,9.6,0.9,14.2,1.3c14.9,1.2,28.5,5.3,42.2,11.1c28.4,12.2,51.8,33.6,72,56.6c17.1,19.5,33.3,40.6,47.8,62.1
		c21,31.2,40.8,65.3,59.5,97.9c1.1,3.9,1.8,12.4,9.1,12c0.1,0,0.2,0,0.2-0.1c-0.1,0-0.1,0-0.2,0.1c-2.4-0.8,0.1-0.3,0.2-0.1
		C274.3,443.3,276.5,440.8,276.4,437.4z"/>
	<g>
		<g>
			<path d="M220.1,110.4c-14.1-12.7-29.3-23.9-45.2-34.1C138.5,52.9,99.7,35.4,56.3,30c-12.9-1.6-25.9-1.7-38.8-2.9c0,0.1,0,0.1,0,0
				c-5.8,0-11.5,0.2-17.2,0.6l0.1,10.5c4.2-0.3,8.3-0.5,12.4-0.6c14.1-0.4,31.8,1.5,45.8,3.4c15.8,2.2,31.8,7.1,46.8,12.3
				c31.7,9.8,50.1,23.8,77,41.2c3.1,2,8.6,5.6,11.6,7.8c6.8,5,13.2,11.2,19.6,16.4c2.6,2.1,4.6,3,7.6,1.5
				C226,117.8,224.5,114.4,220.1,110.4z"/>
		</g>
	</g>
	<path d="M140.3,576.4l-49.4,56.5c-2.6,3-5.3,5.8-8.2,8.5c-18.5,16.8-39.2,30.2-61.5,41.5c-5.2,2.7-10.5,5.2-15.9,7.6l0.1,13.3
		c24.3-10.7,44.7-23,66.9-40.3c19.6-15.2,34.8-30.1,48.3-48.1c6.9-9.3,18.2-21.3,26.7-30.2C151.8,580.5,146.6,572.8,140.3,576.4z"/>
	<path d="M75.7,318.8c-14.6-0.5,0,11.3,9,20.3c10,10.1,29.9,29.2,37.7,42.5c6.7,11.4,17.4,29.2,24.2,40.6
		c27.2,45.5,56.3,86.2,95.9,121.8c5.2,4.7,11.8,10.3,17.3,14.7c4.5,3.5,9.9,3.5,11.1-1.9c0.8-3.8-4.5-8.7-7.1-11
		c-9.5-8.5-19.3-16.7-28.4-25.6c-28.8-28.3-52.9-60.5-74.4-94.8c-5.8-9.3-11-19-16.1-28.7c-8.5-16.2-19.6-27.3-31.1-42.2
		c-10.9-11-14-14.2-22.4-23.5c-1.1-1.2-1.4-1-1.4-1C85,325.6,84.7,323.6,75.7,318.8L75.7,318.8z"/>
	<path d="M85.5,379.5c16.2,22.9,32.1,51.8,45.1,76.7c14.7,27.8,34.8,52.7,56.8,75.2c15.8,16.2,33.3,30.9,51,44.8
		c6.5,5.1,11.7,9.9,18.3,14.9c2.5,1.9,6.4,1.4,9.3,0c2.6-1.4,2.4-0.7,2.5-4.9c0.1-1.8-4.1-4.8-6.3-6.5c-18.5-14-36.7-28.4-53.8-44.2
		c-20.1-18.7-38.3-39-52.7-62.5c-8.7-14.3-16.5-29.2-24.8-43.7c-12.8-22.4-26.1-44.4-41.9-64.8C81.4,360.3,77.9,368.3,85.5,379.5z"
		/>
	<path d="M66.1,540.9l1.5,2.6c-3.2-3.1-6.3-3.7-9.5-0.7c-12.8,12.3-25.5,23-40.1,33.7c-4.5,3.3-9,6.5-13.6,9.6l0.1,12.9
		c17-11.2,33.3-24.3,51.4-40.8c0.4-0.4,9.9-7.7,10.3-8.1C68.7,547.9,68.6,543.3,66.1,540.9z"/>
	<path d="M115,543.9l-1.2-0.9c-3.5-5.7-18.2,6.7-21.9,10.6c-15,15.5-20.1,19-37.2,32.3c-16.1,12.5-32.7,24.1-50,34.5l0.1,13.3
		c36.3-19.7,68.6-42.8,101-74.8c0.5-0.5,6.7-7.2,7.2-7.6C115.9,548.4,115.9,548.4,115,543.9z"/>
	<path d="M162,590.9c-4-0.9-7.5,1.2-9,5.5c-8.6,24.5-23.4,45.4-42.9,63.5c-18.2,16.9-39,30.4-61.2,42c-14.1,7.3-28.6,13.8-43.4,19.7
		l0.1,13.4c29.2-11.5,57.1-25.6,82.8-43.2c23.2-15.9,44.2-33.7,59.3-56.9c7.1-10.9,13.4-22.8,17.5-35
		C166.8,595.4,166.6,592,162,590.9z"/>
	<path d="M17.4,27.1C17.4,27.2,17.4,27.1,17.4,27.1L17.4,27.1z"/>
	<path d="M37.3,522L37.3,522c-1.5,0.2-2.9,1-4,2c-9.2,8.9-19,17.1-29.1,24.9l0.1,14.9c10.6-7.8,20.9-16.1,30.7-24.8
		c2.3-2,7-4.8,7.8-6.4C45.3,527.8,39.6,521.1,37.3,522z"/>
	<path d="M42.9,378.8c-0.7-4.5-3.6-5-6.7-2.6c-6.6,5.2-13.2,10.2-19.5,16c-4.8,4.4-9.3,9-13.7,14l0.1,14.1
		c8.8-10.8,17.6-22.2,27.9-29.5C33.6,389,43.4,381.9,42.9,378.8z"/>
	<path d="M14.5,371.1c-0.6-4.2-3.7-6.3-6.5-4c-1.7,1.4-3.4,2.7-5.2,4.1l0.1,11.3c0.9-0.7,1.8-1.4,2.7-2
		C7.9,378.7,14.9,373.9,14.5,371.1z"/>
	<path d="M103.7,471.1c-1.3-3.1-3.7-5.7-1.6-8.3c2.4-3,0.5-1.5,2-2c3.5-1.3,6,0.4,8.3,4.1c3.1,4.9,6,9.9,9.1,14.8
		c17.8,28.1,37.4,54.7,60.8,77.8c17,16.7,35.4,31.2,55.6,43.2c3.5,2.1,4.3,5.3,2.8,8.2c-3.3,5.9-6.3,3.2-12.4-0.9
		c-11.8-8-20.6-16-31.6-24.4c-27.2-20.9-36.7-31.1-56.8-59.6c-10.2-14.4-22-30.4-31.7-45.2C105.4,474.5,104,471.8,103.7,471.1z"/>
	<path d="M183.3,614.8c-3.2-0.7-9.4,7.4-12,10.8c-9.1,12.1-20.5,24.8-30,36.6c-14.8,18.3-31.1,34.1-50.1,49.1
		c-10.3,8.2-22,15.6-33.4,22.2c-11.2,6.6-23.8,11.8-35.7,16.7c-5.6,2.3-11.1,4.4-16.5,6.3l0.1,15c29.4-9.1,55.5-24.5,85.4-45.2
		c10.3-7.2,23.4-17,35.7-28.7c14.3-13.7,28.8-30.2,40.6-45.6c6.6-8.6,11.6-18.7,17.9-27.5C188.3,620.6,187.4,615.7,183.3,614.8z"/>
	<path d="M126.3,740l-1.2,0.7c-25.6,21.1-38.6,32.1-68,43.1c-10.1,3.8-21.8,8.9-31.7,10.6c-3.8,0.6-14,1.2-13.2-2.3
		c0.8-3.3,0-6.4,3.8-7c23.3-4,43.4-12.4,66.2-26.5c15.4-9.5,34-24.2,47.6-36.6c13.9-12.6,26.3-27,36.7-41.7
		c6.9-9.7,14.6-22,19.3-31.7c1.6-4.3,7.3-9.1,10.9-9.1c1.7,0,3.2,2.1,4,4.6c1.1,3.1,0.4,6.6-1.6,9.3c-2.9,3.9-8.3,11.6-11.7,17.3
		c-8.7,14.3-19.8,28.7-32.4,41.2c-5.2,5.2-9.2,9.8-13.6,14.5c-3.6,3.8-9.9,9.5-14,12.6C127,739.5,126.6,739.8,126.3,740z"/>
	<path d="M271.9,514.4c-2.4-3.2-5.2-6.2-7.7-9.4c-19-23.5-38.1-46.9-56.9-70.5c-18.5-23.4-36-47.7-52.8-72.4
		c-10.2-15-19-30.9-30.7-44.8c-14.7-17.5-30.7-33.4-50.6-45.1c-16.8-9.9-34.9-15.4-57.3-15.5c-3,0.3-8.4,0.7-14,1.6L2,271.2
		c4.7-0.8,9.3-1.4,13.7-1.6c18.9-1.1,37.9,2.5,54,12.3c24,14.5,42,36.9,57.7,59.8c13.9,20.2,30.4,45.1,44.6,65.1
		c20.4,28.8,43.7,57,66.1,84.3c9.4,11.4,15.3,19.5,24.8,30.8c1.3,1.5,4.5,2.3,6.3,3c-1.8-0.7,1.6-0.6,3.4-3
		C274.5,519.3,274,517.1,271.9,514.4z"/>
</g>
</svg>
